<svg width="480" height="120" viewBox="0 0 480 120" fill="none" xmlns="http://www.w3.org/2000/svg">
<g clip-path="url(#clip0_2180_112785)">
<path d="M117.932 46.066H60.928C60.7341 46.066 60.5482 45.989 60.4109 45.8521C60.2737 45.7151 60.1964 45.5292 60.1961 45.3354V2.46294C60.1961 0.169156 57.3279 -0.869862 55.8587 0.89316L0.573637 67.2341C0.275434 67.5925 0.085457 68.0283 0.0259421 68.4906C-0.0335729 68.953 0.0398363 69.4227 0.237578 69.8449C0.435319 70.267 0.749212 70.6241 1.14252 70.8743C1.53582 71.1246 1.99227 71.2576 2.45843 71.2579H59.4655C59.6594 71.2582 59.8452 71.3355 59.9822 71.4727C60.1192 71.6099 60.1961 71.7959 60.1961 71.9898V114.862C60.1961 117.157 63.0656 118.196 64.5348 116.433L119.82 50.0923C120.119 49.7339 120.31 49.2976 120.37 48.8346C120.429 48.3715 120.356 47.9011 120.158 47.4783C119.96 47.0556 119.645 46.6982 119.251 46.448C118.857 46.1978 118.399 46.0653 117.932 46.066Z" fill="#CBF200"/>
<path d="M162.602 114.006V41.6054C162.602 40.7278 162.95 39.8861 163.571 39.2656C164.191 38.645 165.033 38.2964 165.911 38.2964H184.441C185.318 38.2964 186.16 38.645 186.781 39.2656C187.401 39.8861 187.75 40.7278 187.75 41.6054V114.006C187.75 114.883 187.401 115.725 186.781 116.346C186.16 116.966 185.318 117.315 184.441 117.315H165.911C165.033 117.315 164.191 116.966 163.571 116.346C162.95 115.725 162.602 114.883 162.602 114.006Z" fill="#131318"/>
<path d="M162.602 21.7334V3.4295C162.601 2.9799 162.69 2.53467 162.862 2.11924C163.034 1.70382 163.286 1.32633 163.604 1.00836C163.921 0.690378 164.299 0.438138 164.714 0.266043C165.13 0.0939483 165.575 0.00537106 166.024 0.00537109L184.339 0.00537109C185.247 0.00537109 186.118 0.366126 186.76 1.00827C187.402 1.65042 187.763 2.52136 187.763 3.4295V21.7334C187.762 22.6407 187.401 23.5107 186.76 24.152C186.118 24.7933 185.248 25.1536 184.34 25.1536H166.026C165.118 25.1536 164.248 24.7934 163.606 24.1521C162.964 23.5108 162.603 22.6409 162.602 21.7334V21.7334Z" fill="#131318"/>
<path d="M269.387 115.837L251.627 85.6589C251.603 85.6174 251.568 85.5826 251.527 85.5576C251.486 85.5327 251.439 85.5184 251.391 85.516C251.343 85.5137 251.295 85.5233 251.252 85.5441C251.209 85.5649 251.171 85.5961 251.143 85.6351L229.047 116.084C228.763 116.466 228.394 116.777 227.969 116.991C227.544 117.206 227.075 117.319 226.599 117.322H212.172C211.295 117.322 210.453 116.973 209.832 116.353C209.212 115.732 208.863 114.89 208.863 114.013V3.31435C208.863 2.43675 209.212 1.5951 209.832 0.974548C210.453 0.353994 211.295 0.00537109 212.172 0.00537109L230.703 0.00537109C231.58 0.00537109 232.422 0.353994 233.042 0.974548C233.663 1.5951 234.011 2.43675 234.011 3.31435V74.2072C234.013 74.2687 234.033 74.3282 234.071 74.3771C234.108 74.4261 234.16 74.4619 234.219 74.4794C234.278 74.4969 234.341 74.4953 234.399 74.4747C234.456 74.454 234.506 74.4155 234.541 74.3647L265.643 26.5037C265.917 26.0823 266.292 25.7359 266.734 25.4958C267.176 25.2557 267.67 25.1294 268.173 25.1284H290.584C291.144 25.1264 291.693 25.2795 292.171 25.5709C292.649 25.8623 293.037 26.2804 293.292 26.7789C293.546 27.2774 293.657 27.8368 293.613 28.3948C293.569 28.9527 293.371 29.4875 293.041 29.9397L268.678 63.2942C268.645 63.3391 268.625 63.3927 268.622 63.4483C268.619 63.5039 268.632 63.5593 268.659 63.6079L296.615 112.786C296.877 113.244 297.014 113.763 297.013 114.29C297.012 114.818 296.872 115.336 296.607 115.793C296.343 116.249 295.963 116.628 295.505 116.892C295.048 117.155 294.53 117.294 294.002 117.294H271.996C271.471 117.302 270.954 117.171 270.496 116.915C270.038 116.66 269.656 116.287 269.387 115.837V115.837Z" fill="#131318"/>
<path d="M339.961 118.556C316.092 118.556 299.428 98.9572 299.428 70.9196C299.428 42.882 316.092 23.2849 339.961 23.2849C349.915 23.2849 359.071 27.5204 366.413 35.4884L366.924 36.0417C366.962 36.0852 367.011 36.1166 367.066 36.1319C367.122 36.1472 367.18 36.1456 367.235 36.1274C367.289 36.1093 367.337 36.0753 367.372 36.0298C367.407 35.9844 367.427 35.9295 367.431 35.8723L367.492 35.0371V35.0172C367.492 33.0385 367.685 30.1583 367.851 27.9082C367.907 27.1519 368.247 26.4449 368.803 25.9292C369.36 25.4136 370.09 25.1276 370.849 25.1287H388.32C389.198 25.1287 390.039 25.4773 390.66 26.0979C391.28 26.7184 391.629 27.5601 391.629 28.4377V113.979C391.629 114.856 391.28 115.698 390.66 116.318C390.039 116.939 389.198 117.288 388.32 117.288H370.872C370.107 117.294 369.368 117.009 368.806 116.49C368.243 115.971 367.899 115.257 367.844 114.494C367.679 111.999 367.46 108.791 367.46 107.412C367.46 107.406 367.46 107.399 367.46 107.392L367.374 106.334C367.37 106.278 367.35 106.225 367.316 106.181C367.283 106.137 367.237 106.103 367.185 106.084C367.132 106.065 367.076 106.062 367.021 106.074C366.967 106.087 366.918 106.115 366.879 106.155L366.36 106.684C358.991 114.46 349.827 118.556 339.961 118.556ZM367.413 62.8735C366.738 58.5573 364.742 54.4025 361.307 51.4377C357.351 47.9769 352.268 46.0809 347.012 46.1063C333.627 46.1063 324.291 56.4131 324.291 71.1737C324.291 87.1164 332.569 96.2425 347.012 96.2425C349.929 96.2504 352.818 95.6879 355.519 94.5867C362.124 91.8654 366.497 85.8179 367.431 79.1113L367.696 77.2967C368.307 73.0657 368.287 68.7676 367.636 64.5425L367.413 62.8735Z" fill="#131318"/>
<path d="M440.347 119.467C426.131 119.467 417.084 116.498 411.996 113.997C410.012 113.038 408.133 111.878 406.388 110.534C405.85 110.094 405.481 109.48 405.346 108.798C405.21 108.116 405.315 107.408 405.644 106.795L412.791 93.3539C412.996 92.9719 413.281 92.6386 413.626 92.3767C413.971 92.1149 414.369 91.9306 414.792 91.8366C415.215 91.7426 415.653 91.7411 416.077 91.8321C416.5 91.9231 416.899 92.1045 417.247 92.3639C426.21 98.9064 436.166 99.6754 440.345 99.6754C448.732 99.6754 453.351 96.5967 453.351 91.0178C453.351 83.7606 446.336 82.0571 437.484 79.9129C436.633 79.7196 435.779 79.4999 434.928 79.2802C423.158 76.3392 407.512 70.4572 407.512 53.2505C407.512 44.536 411.361 37.0603 418.648 31.6177C425.633 26.3948 435.312 23.5359 445.926 23.5359C461.298 23.5359 472.05 28.6489 476.808 31.4774C477.47 31.8713 477.956 32.5041 478.166 33.2454C478.376 33.9868 478.293 34.7803 477.936 35.4628L471.309 48.2725C470.514 49.784 468.612 50.3611 467.155 49.5087C458.412 44.5068 450.904 43.3792 445.926 43.3792C442.407 43.3792 434.158 43.3792 434.158 51.4332C434.158 57.5072 439.218 58.6626 445.624 60.1464C447.714 60.6414 450.107 61.1629 452.555 61.9332C460.775 64.4891 479.997 70.5088 479.997 88.5956C479.997 97.199 476.148 105.033 469.163 110.641C461.878 116.361 451.925 119.467 440.347 119.467Z" fill="#131318"/>
</g>
<defs>
<clipPath id="clip0_2180_112785">
<rect width="480" height="119.461" fill="white"/>
</clipPath>
</defs>
</svg>
